<svg width="24" height="24" viewBox="0 0 24 24" fill="none" xmlns="http://www.w3.org/2000/svg">
<path d="M23 12.5V17.5C23 17.7652 22.8946 18.0196 22.7071 18.2071C22.5196 18.3946 22.2652 18.5 22 18.5H21C21 19.2956 20.6839 20.0587 20.1213 20.6213C19.5587 21.1839 18.7956 21.5 18 21.5C17.2044 21.5 16.4413 21.1839 15.8787 20.6213C15.3161 20.0587 15 19.2956 15 18.5H9C9 19.2956 8.68393 20.0587 8.12132 20.6213C7.55871 21.1839 6.79565 21.5 6 21.5C5.20435 21.5 4.44129 21.1839 3.87868 20.6213C3.31607 20.0587 3 19.2956 3 18.5H2C1.73478 18.5 1.48043 18.3946 1.29289 18.2071C1.10536 18.0196 1 17.7652 1 17.5V5.5C1 4.70435 1.31607 3.94129 1.87868 3.37868C2.44129 2.81607 3.20435 2.5 4 2.5H13C13.7956 2.5 14.5587 2.81607 15.1213 3.37868C15.6839 3.94129 16 4.70435 16 5.5V7.5H18C18.4657 7.5 18.9251 7.60844 19.3416 7.81672C19.7582 8.025 20.1206 8.32741 20.4 8.7L22.8 11.9C22.8292 11.9435 22.8528 11.9905 22.87 12.04L22.93 12.15C22.9741 12.2615 22.9978 12.3801 23 12.5ZM7 18.5C7 18.3022 6.94135 18.1089 6.83147 17.9444C6.72159 17.78 6.56541 17.6518 6.38268 17.5761C6.19996 17.5004 5.99889 17.4806 5.80491 17.5192C5.61093 17.5578 5.43274 17.653 5.29289 17.7929C5.15304 17.9327 5.0578 18.1109 5.01921 18.3049C4.98063 18.4989 5.00043 18.7 5.07612 18.8827C5.15181 19.0654 5.27998 19.2216 5.44443 19.3315C5.60888 19.4414 5.80222 19.5 6 19.5C6.26522 19.5 6.51957 19.3946 6.70711 19.2071C6.89464 19.0196 7 18.7652 7 18.5ZM14 5.5C14 5.23478 13.8946 4.98043 13.7071 4.79289C13.5196 4.60536 13.2652 4.5 13 4.5H4C3.73478 4.5 3.48043 4.60536 3.29289 4.79289C3.10536 4.98043 3 5.23478 3 5.5V16.5H3.78C4.06118 16.1906 4.40391 15.9435 4.78622 15.7743C5.16852 15.6052 5.58195 15.5178 6 15.5178C6.41805 15.5178 6.83148 15.6052 7.21378 15.7743C7.59609 15.9435 7.93882 16.1906 8.22 16.5H14V5.5ZM16 11.5H20L18.8 9.9C18.7069 9.7758 18.5861 9.675 18.4472 9.60557C18.3084 9.53615 18.1552 9.5 18 9.5H16V11.5ZM19 18.5C19 18.3022 18.9414 18.1089 18.8315 17.9444C18.7216 17.78 18.5654 17.6518 18.3827 17.5761C18.2 17.5004 17.9989 17.4806 17.8049 17.5192C17.6109 17.5578 17.4327 17.653 17.2929 17.7929C17.153 17.9327 17.0578 18.1109 17.0192 18.3049C16.9806 18.4989 17.0004 18.7 17.0761 18.8827C17.1518 19.0654 17.28 19.2216 17.4444 19.3315C17.6089 19.4414 17.8022 19.5 18 19.5C18.2652 19.5 18.5196 19.3946 18.7071 19.2071C18.8946 19.0196 19 18.7652 19 18.5ZM21 13.5H16V16.28C16.5902 15.7526 17.3649 15.4797 18.1553 15.5209C18.9457 15.5621 19.6879 15.914 20.22 16.5H21V13.5Z"/>
</svg>
